<svg version="1.1" fill="#b18651" height="70px" width="70px" xmlns="http://www.w3.org/2000/svg" xmlns:xlink="http://www.w3.org/1999/xlink" x="0px" y="0px"
	 viewBox="0 0 512.007 512.007" style="enable-background:new 0 0 512.007 512.007;" xml:space="preserve">
<g>
	<g>
		<g>
			<path d="M121.834,255.249c6.221,16.196,26.803,68.42,41.737,90.82l1.348,2.039c10.957,16.614,29.286,44.425,91.085,44.425
				s80.128-27.81,91.085-44.425l1.348-2.039c0.256-0.384,0.521-0.836,0.776-1.229h0.085c23.526,0,42.667-19.14,42.667-42.667
				c0-9.865-3.584-19.277-9.737-26.837c3.439-8.474,6.246-15.65,7.945-20.087c11.145-2.765,19.43-12.86,19.43-24.849v-34.133
				c0-11.127-7.134-20.617-17.067-24.141V128c0-33.69-17.741-95.923-83.354-101.931c-0.145-4.028-1.476-7.27-2.953-9.668
				C297.851,2.85,274.29,0,256.003,0c-151.842,0-153.6,143.616-153.6,145.067c0,4.71,3.814,8.525,8.525,8.525h0.009
				c4.702,0,8.525-3.806,8.533-8.508c0.017-5.231,1.937-128.017,136.533-128.017c24.132,0,33.801,5.222,35.703,8.311
				c0.273,0.435,0.998,1.604-0.666,4.941c-1.323,2.645-1.186,5.786,0.375,8.303c1.553,2.509,4.292,4.045,7.253,4.045
				c75.657,0,76.791,81.86,76.8,85.333v51.2c0,4.71,3.823,8.533,8.533,8.533c4.702,0,8.533,3.831,8.533,8.533V230.4
				c0,4.702-3.831,8.533-8.533,8.533c-3.558,0-6.741,2.21-7.987,5.538c-0.111,0.29-4.693,12.459-11.162,28.211
				c-0.401,0.717-0.725,1.434-0.905,2.21c-7.151,17.314-16.341,38.289-24.439,52.881h-33.826
				c-3.482-10.01-12.902-17.246-24.081-17.246c-14.114,0-25.6,11.477-25.6,25.6c0,14.114,11.486,25.6,25.6,25.6
				c11.051,0,20.395-7.066,23.97-16.887h23.117c-10.257,14.43-26.752,30.626-72.687,30.626c-52.599,0-66.611-21.239-76.834-36.753
				l-1.399-2.116c-16.324-24.482-41.523-91.452-41.771-92.126c-1.254-3.328-4.437-5.538-7.996-5.538
				c-4.702,0-8.533-3.831-8.533-8.533v-34.133c0-2.313,0.93-4.412,2.423-5.948c3.396,7.62,10.607,14.481,23.177,14.481
				c3.234,0,6.187-1.826,7.637-4.719c7.817-15.633,15.505-44.322,17.476-63.625c26.897-0.478,104.713-3.763,139.332-25.37
				c7.851,30.31,33.058,55.817,34.321,57.08c3.336,3.336,8.738,3.336,12.066,0c3.336-3.328,3.336-8.73,0-12.066
				c-0.316-0.316-31.633-31.983-31.633-62.234c0-3.831-2.56-7.202-6.255-8.226c-3.695-1.016-7.62,0.538-9.591,3.831
				c-12.416,20.693-93.022,29.995-146.287,29.995c-4.71,0-8.533,3.823-8.533,8.533c0,13.858-6.545,41.515-13.508,58.539
				c-2.722-1.638-3.49-4.693-3.558-7.339c0-4.71-3.823-8.533-8.533-8.533c-14.114,0-25.6,11.486-25.6,25.6V230.4
				C102.403,242.389,110.689,252.484,121.834,255.249z M373.849,295.356c0.614,2.219,1.05,4.48,1.05,6.818
				c0,10.249-6.101,19.055-14.822,23.134C364.761,315.93,369.497,305.459,373.849,295.356z M289.83,337.638
				c-0.734,3.959-4.062,7.023-8.226,7.023c-4.702,0-8.533-3.831-8.533-8.533c0-4.71,3.831-8.533,8.533-8.533
				c4.232,0,7.603,3.149,8.26,7.202c-0.094,0.503-0.299,0.973-0.299,1.51C289.565,336.777,289.761,337.186,289.83,337.638z"/>
			<path d="M511.747,501.393l-8.713-34.756c-12.817-38.434-74.291-57.156-187.315-56.678c-4.062,0.009-7.552,2.876-8.346,6.852
				l-17.067,84.975c-0.93,4.625,2.065,9.122,6.682,10.052c4.617,0.887,9.122-2.065,10.052-6.69l15.684-78.114
				c97.732,0.452,154.436,15.957,163.934,44.373l8.533,34.133c0.973,3.874,4.446,6.468,8.269,6.46c0.691,0,1.382-0.077,2.082-0.256
				C510.109,510.609,512.891,505.976,511.747,501.393z"/>
			<path d="M256.003,409.6c-14.114,0-25.6,11.486-25.6,25.6c0,11.11,7.159,20.489,17.067,24.03v44.237
				c0,4.71,3.823,8.533,8.533,8.533s8.533-3.823,8.533-8.533V459.23c9.916-3.541,17.067-12.919,17.067-24.03
				C281.603,421.086,270.118,409.6,256.003,409.6z M256.003,443.733c-4.702,0-8.533-3.831-8.533-8.533
				c0-4.702,3.831-8.533,8.533-8.533s8.533,3.831,8.533,8.533C264.537,439.902,260.705,443.733,256.003,443.733z"/>
			<path d="M281.603,204.8c-4.71,0-8.533,3.823-8.533,8.533c0,4.71,3.823,8.533,8.533,8.533h8.533c0,4.71,3.823,8.533,8.533,8.533
				c4.71,0,8.533-3.823,8.533-8.533h8.533c4.71,0,8.533-3.823,8.533-8.533c0-4.71-3.823-8.533-8.533-8.533H281.603z"/>
			<path d="M230.403,204.8H196.27c-4.71,0-8.533,3.823-8.533,8.533c0,4.71,3.823,8.533,8.533,8.533h8.533
				c0,4.71,3.823,8.533,8.533,8.533c4.71,0,8.533-3.823,8.533-8.533h8.533c4.71,0,8.533-3.823,8.533-8.533
				C238.937,208.623,235.114,204.8,230.403,204.8z"/>
			<path d="M204.641,416.461c-0.802-3.985-4.301-6.861-8.371-6.861c-116.386,0-174.148,17.596-187.477,57.66l-8.533,34.133
				c-1.143,4.582,1.638,9.216,6.204,10.351c0.7,0.179,1.399,0.256,2.082,0.256c3.823,0,7.305-2.586,8.269-6.46l8.354-33.502
				c9.941-29.85,63.659-44.698,164.113-45.346l15.693,78.447c0.922,4.625,5.393,7.629,10.035,6.699
				c4.625-0.93,7.62-5.427,6.699-10.044L204.641,416.461z"/>
			<path d="M230.403,310.528c-0.12,0-11.861-0.145-17.963-12.356c-2.108-4.215-7.228-5.922-11.452-3.814
				c-4.215,2.108-5.922,7.236-3.814,11.452c10.769,21.538,32.316,21.786,33.229,21.786c4.71,0,8.533-3.823,8.533-8.533
				S235.114,310.528,230.403,310.528z"/>
		</g>
	</g>
</g>
</svg>
